<svg xmlns="http://www.w3.org/2000/svg" viewBox="-20 -35 870 195" fill="none">
  <style>
    svg {
      --fg: #111827;
      --fg-muted: #6b7280;
      --accent: #2563eb;
      --accent-soft: #dbeafe;
      --gap: #6b7280;
      --gap-bg: #f1f5f9;
      --pe: #7c3aed;
      --pe-fill: #ede9fe;
      --sc: #0d9488;
      --sc-fill: #ccfbf1;
    }
    @media (prefers-color-scheme: dark) {
      svg {
        --fg: #e8e2d6;
        --fg-muted: #a09890;
        --accent: #d4a647;
        --accent-soft: #2a2520;
        --gap: #a09890;
        --gap-bg: #2a2520;
        --pe: #d4b0e8;
        --pe-fill: #322238;
        --sc: #a0d4b8;
        --sc-fill: #1e3028;
      }
    }
    text { font-family: system-ui, -apple-system, sans-serif; }
</style>
<defs >
<linearGradient id="rainbow" x1="0" y1="0" x2="1" y2="0">
  <stop offset="0%" stop-color="#ef4444"/>
  <stop offset="20%" stop-color="#f97316"/>
  <stop offset="40%" stop-color="#eab308"/>
  <stop offset="60%" stop-color="#22c55e"/>
  <stop offset="80%" stop-color="#3b82f6"/>
  <stop offset="100%" stop-color="#8b5cf6"/>
</linearGradient>
<linearGradient id="rainbow-subtle" x1="0" y1="0" x2="1" y2="0.5">
  <stop offset="0%" stop-color="#ef4444" stop-opacity="0.5"/>
  <stop offset="20%" stop-color="#f97316" stop-opacity="0.5"/>
  <stop offset="40%" stop-color="#eab308" stop-opacity="0.5"/>
  <stop offset="60%" stop-color="#22c55e" stop-opacity="0.5"/>
  <stop offset="80%" stop-color="#3b82f6" stop-opacity="0.5"/>
  <stop offset="100%" stop-color="#8b5cf6" stop-opacity="0.5"/>
</linearGradient>
</defs>
<rect x="0" y="0" width="160" height="55" rx="27.5" fill="var(--pe-fill)" stroke="var(--pe)" stroke-width="2"/>
<text x="80" y="25.5" style="font-size: 15px; font-weight: 600; text-anchor: middle; fill: var(--pe)">
Product
</text>
<text x="80" y="41.5" style="font-size: 15px; font-weight: 600; text-anchor: middle; fill: var(--pe)">
Expectations
</text>
<rect x="210" y="0" width="110" height="55" rx="4" fill="var(--pe-fill)" stroke="var(--pe)" stroke-width="2"/>
<text x="265" y="32.5" style="font-size: 14px; font-weight: 600; text-anchor: middle; fill: var(--pe)">
Pitch Deck
</text>
<rect x="370" y="0" width="100" height="55" rx="4" fill="var(--pe-fill)" stroke="var(--pe)" stroke-width="2"/>
<text x="420" y="32.5" style="font-size: 14px; font-weight: 600; text-anchor: middle; fill: var(--pe)">
PRD
</text>
<rect x="520" y="0" width="110" height="55" rx="4" fill="var(--pe-fill)" stroke="var(--pe)" stroke-width="2"/>
<rect x="520" y="0" width="110" height="55" rx="4" fill="none" stroke="url(#rainbow-subtle)" stroke-width="3"/>
<text x="575" y="32.5" style="font-size: 14px; font-weight: 600; text-anchor: middle; fill: var(--pe)">
Jira Ticket
</text>
<rect x="680" y="-15" width="150" height="160" rx="28" fill="var(--sc-fill)" stroke="var(--sc)" stroke-width="2"/>
<text x="755" y="62" style="font-size: 15px; font-weight: 600; text-anchor: middle; fill: var(--sc)">
Source
</text>
<text x="755" y="77" style="font-size: 15px; font-weight: 600; text-anchor: middle; fill: var(--sc)">
Code
</text>
<rect x="170" y="21.5" width="18" height="12" rx="6" fill="var(--fg-muted)"/>
<polygon points="200,27.5 182,15.799999999999999 182,39.2" fill="var(--fg-muted)"/>
<rect x="330" y="25" width="22.5" height="5" rx="2.5" fill="var(--fg-muted)"/>
<polygon points="360,27.5 350,21 350,34" fill="var(--fg-muted)"/>
<rect x="480" y="26.3" width="24.3" height="2.5" rx="1.3" fill="var(--fg-muted)"/>
<polygon points="510,27.5 503,22.95 503,32.05" fill="var(--fg-muted)"/>
<rect x="640" y="26.3" width="24.3" height="2.5" rx="1.3" fill="url(#rainbow)"/>
<polygon points="670,27.5 663,22.95 663,32.05" fill="url(#rainbow)"/>
<text x="655" y="49.5" style="font-size: 14px; font-weight: 700; text-anchor: middle; fill: url(#rainbow)">
AI!
</text>
<rect x="487" y="80" width="110" height="55" rx="4" fill="var(--gap-bg)" stroke="var(--gap)" stroke-width="2"/>
<rect x="487" y="80" width="110" height="55" rx="4" fill="none" stroke="url(#rainbow-subtle)" stroke-width="3"/>
<text x="542" y="105.5" style="font-size: 14px; font-weight: 600; text-anchor: middle; fill: var(--gap)">
Ad-hoc
</text>
<text x="542" y="121.5" style="font-size: 14px; font-weight: 600; text-anchor: middle; fill: var(--gap)">
Decisions
</text>
<rect x="602" y="106.3" width="67.3" height="2.5" rx="1.3" fill="url(#rainbow)"/>
<polygon points="675,107.5 668,102.95 668,112.05" fill="url(#rainbow)"/>
<text x="638.5" y="129.5" style="font-size: 14px; font-weight: 700; text-anchor: middle; fill: url(#rainbow)">
AI!
</text>
</svg>