<svg xmlns="http://www.w3.org/2000/svg" viewBox="-20 -20 870 95" fill="none">
  <style>
    svg {
      --fg: #111827;
      --fg-muted: #6b7280;
      --accent: #2563eb;
      --accent-soft: #dbeafe;
      --gap: #6b7280;
      --gap-bg: #f1f5f9;
      --pe: #7c3aed;
      --pe-fill: #ede9fe;
      --sc: #0d9488;
      --sc-fill: #ccfbf1;
    }
    @media (prefers-color-scheme: dark) {
      svg {
        --fg: #e8e2d6;
        --fg-muted: #a09890;
        --accent: #d4a647;
        --accent-soft: #2a2520;
        --gap: #a09890;
        --gap-bg: #2a2520;
        --pe: #d4b0e8;
        --pe-fill: #322238;
        --sc: #a0d4b8;
        --sc-fill: #1e3028;
      }
    }
    text { font-family: system-ui, -apple-system, sans-serif; }
</style>
<rect x="0" y="0" width="160" height="55" rx="27.5" fill="var(--pe-fill)" stroke="var(--pe)" stroke-width="2"/>
<text x="80" y="25.5" style="font-size: 15px; font-weight: 600; text-anchor: middle; fill: var(--pe)">
Product
</text>
<text x="80" y="41.5" style="font-size: 15px; font-weight: 600; text-anchor: middle; fill: var(--pe)">
Expectations
</text>
<rect x="210" y="0" width="110" height="55" rx="4" fill="var(--pe-fill)" stroke="var(--pe)" stroke-width="2"/>
<text x="265" y="32.5" style="font-size: 14px; font-weight: 600; text-anchor: middle; fill: var(--pe)">
Pitch Deck
</text>
<rect x="370" y="0" width="100" height="55" rx="4" fill="var(--pe-fill)" stroke="var(--pe)" stroke-width="2"/>
<text x="420" y="32.5" style="font-size: 14px; font-weight: 600; text-anchor: middle; fill: var(--pe)">
PRD
</text>
<rect x="520" y="0" width="110" height="55" rx="4" fill="var(--pe-fill)" stroke="var(--pe)" stroke-width="2"/>
<text x="575" y="32.5" style="font-size: 14px; font-weight: 600; text-anchor: middle; fill: var(--pe)">
Jira Ticket
</text>
<rect x="680" y="0" width="150" height="55" rx="27.5" fill="var(--sc-fill)" stroke="var(--sc)" stroke-width="2"/>
<text x="755" y="32.5" style="font-size: 15px; font-weight: 600; text-anchor: middle; fill: var(--sc)">
Source Code
</text>
<rect x="170" y="21.5" width="18" height="12" rx="6" fill="var(--fg-muted)"/>
<polygon points="200,27.5 182,15.799999999999999 182,39.2" fill="var(--fg-muted)"/>
<rect x="330" y="25" width="22.5" height="5" rx="2.5" fill="var(--fg-muted)"/>
<polygon points="360,27.5 350,21 350,34" fill="var(--fg-muted)"/>
<rect x="480" y="26.3" width="24.3" height="2.5" rx="1.3" fill="var(--fg-muted)"/>
<polygon points="510,27.5 503,22.95 503,32.05" fill="var(--fg-muted)"/>
<rect x="640" y="26.9" width="25.6" height="1.2" rx="0.6" fill="var(--fg-muted)"/>
<polygon points="670,27.5 665,24.25 665,30.75" fill="var(--fg-muted)"/>
</svg>