<svg xmlns="http://www.w3.org/2000/svg" viewBox="-20 -20 1010 148" fill="none">
  <style>
    svg {
      --fg: #111827;
      --fg-muted: #6b7280;
      --accent: #2563eb;
      --accent-soft: #dbeafe;
      --gap: #6b7280;
      --gap-bg: #f1f5f9;
      --pe: #7c3aed;
      --pe-fill: #ede9fe;
      --sc: #0d9488;
      --sc-fill: #ccfbf1;
    }
    @media (prefers-color-scheme: dark) {
      svg {
        --fg: #e8e2d6;
        --fg-muted: #a09890;
        --accent: #d4a647;
        --accent-soft: #2a2520;
        --gap: #a09890;
        --gap-bg: #2a2520;
        --pe: #d4b0e8;
        --pe-fill: #322238;
        --sc: #a0d4b8;
        --sc-fill: #1e3028;
      }
    }
    text { font-family: system-ui, -apple-system, sans-serif; }
</style>
<defs >
<linearGradient id="rainbow-bar" gradientUnits="userSpaceOnUse" x1="195" y1="0" x2="774" y2="0">
  <stop offset="0%" stop-color="#8b5cf6"/>
  <stop offset="10%" stop-color="#3b82f6"/>
  <stop offset="20%" stop-color="#22c55e"/>
  <stop offset="30%" stop-color="#eab308"/>
  <stop offset="40%" stop-color="#f97316"/>
  <stop offset="50%" stop-color="#ef4444"/>
  <stop offset="60%" stop-color="#8b5cf6"/>
  <stop offset="70%" stop-color="#3b82f6"/>
  <stop offset="80%" stop-color="#22c55e"/>
  <stop offset="90%" stop-color="#eab308"/>
  <stop offset="100%" stop-color="#f97316"/>
</linearGradient>
</defs>
<rect x="0" y="3.5" width="160" height="55" rx="27.5" fill="var(--pe-fill)" stroke="var(--pe)" stroke-width="2"/>
<text x="80" y="29" style="font-size: 15px; font-weight: 600; text-anchor: middle; fill: var(--pe)">
Product
</text>
<text x="80" y="45" style="font-size: 15px; font-weight: 600; text-anchor: middle; fill: var(--pe)">
Expectations
</text>
<line x1="165" y1="31" x2="190" y2="31" stroke="var(--fg-muted)" stroke-width="1.5"/>
<polygon points="190,31 184,26.4 184,35.6" fill="var(--fg-muted)"/>
<rect x="201" y="6" width="120" height="62" rx="4" fill="var(--pe-fill)" stroke="var(--pe)" stroke-width="2"/>
<rect x="198" y="3" width="120" height="62" rx="4" fill="var(--pe-fill)" stroke="var(--pe)" stroke-width="2"/>
<rect x="195" y="0" width="120" height="62" rx="4" fill="var(--pe-fill)" stroke="var(--pe)" stroke-width="2"/>
<text x="255" y="29" style="font-size: 14px; font-weight: 600; text-anchor: middle; fill: var(--pe)">
Product Strategy
</text>
<text x="255" y="45" style="font-size: 12px; font-weight: 400; text-anchor: middle; fill: var(--pe)">
(spec group)
</text>
<line x1="326" y1="31" x2="343" y2="31" stroke="var(--fg-muted)" stroke-width="1.5"/>
<polygon points="343,31 337,26.4 337,35.6" fill="var(--fg-muted)"/>
<rect x="354" y="6" width="120" height="62" rx="4" fill="var(--pe-fill)" stroke="var(--pe)" stroke-width="2"/>
<rect x="351" y="3" width="120" height="62" rx="4" fill="var(--pe-fill)" stroke="var(--pe)" stroke-width="2"/>
<rect x="348" y="0" width="120" height="62" rx="4" fill="var(--pe-fill)" stroke="var(--pe)" stroke-width="2"/>
<text x="408" y="29" style="font-size: 14px; font-weight: 600; text-anchor: middle; fill: var(--pe)">
Product Design
</text>
<text x="408" y="45" style="font-size: 12px; font-weight: 400; text-anchor: middle; fill: var(--pe)">
(spec group)
</text>
<line x1="479" y1="31" x2="496" y2="31" stroke="var(--fg-muted)" stroke-width="1.5"/>
<polygon points="496,31 490,26.4 490,35.6" fill="var(--fg-muted)"/>
<rect x="507" y="6" width="120" height="62" rx="4" fill="var(--pe-fill)" stroke="var(--pe)" stroke-width="2"/>
<rect x="504" y="3" width="120" height="62" rx="4" fill="var(--pe-fill)" stroke="var(--pe)" stroke-width="2"/>
<rect x="501" y="0" width="120" height="62" rx="4" fill="var(--pe-fill)" stroke="var(--pe)" stroke-width="2"/>
<text x="561" y="29" style="font-size: 14px; font-weight: 600; text-anchor: middle; fill: var(--pe)">
Architecture
</text>
<text x="561" y="45" style="font-size: 12px; font-weight: 400; text-anchor: middle; fill: var(--pe)">
(spec group)
</text>
<line x1="632" y1="31" x2="649" y2="31" stroke="var(--fg-muted)" stroke-width="1.5"/>
<polygon points="649,31 643,26.4 643,35.6" fill="var(--fg-muted)"/>
<rect x="660" y="6" width="120" height="62" rx="4" fill="var(--pe-fill)" stroke="var(--pe)" stroke-width="2"/>
<rect x="657" y="3" width="120" height="62" rx="4" fill="var(--pe-fill)" stroke="var(--pe)" stroke-width="2"/>
<rect x="654" y="0" width="120" height="62" rx="4" fill="var(--pe-fill)" stroke="var(--pe)" stroke-width="2"/>
<text x="714" y="29" style="font-size: 14px; font-weight: 600; text-anchor: middle; fill: var(--pe)">
Code Shape
</text>
<text x="714" y="45" style="font-size: 12px; font-weight: 400; text-anchor: middle; fill: var(--pe)">
(spec group)
</text>
<line x1="785" y1="31" x2="815" y2="31" stroke="var(--fg-muted)" stroke-width="1.5"/>
<polygon points="815,31 809,26.4 809,35.6" fill="var(--fg-muted)"/>
<rect x="820" y="3.5" width="150" height="55" rx="27.5" fill="var(--sc-fill)" stroke="var(--sc)" stroke-width="2"/>
<text x="895" y="36" style="font-size: 15px; font-weight: 600; text-anchor: middle; fill: var(--sc)">
Source Code
</text>
<rect x="195" y="82" width="569" height="4" rx="2" fill="url(#rainbow-bar)"/>
<polygon points="774,84 764,77 764,91" fill="url(#rainbow-bar)"/>
<text x="484.5" y="104" style="font-size: 14px; font-weight: 700; text-anchor: middle; fill: url(#rainbow-bar)">
AI!
</text>
</svg>